<svg width="852" height="197" viewBox="0 0 852 197" fill="none" xmlns="http://www.w3.org/2000/svg">
<g filter="url(#filter0_d_838_33798)">
<rect x="4" width="844" height="189" rx="40" fill="url(#paint0_linear_838_33798)"/>
</g>
<rect x="624" y="70" width="11" height="11" fill="#AFAFAF"/>
<rect x="624" y="70" width="11" height="11" fill="#AFAFAF"/>
<rect x="624" y="70" width="11" height="11" fill="#AFAFAF"/>
<rect x="624" y="81" width="11" height="10" fill="#AFAFAF"/>
<rect x="624" y="81" width="11" height="10" fill="#AFAFAF"/>
<rect x="624" y="81" width="11" height="10" fill="#FEFEFE"/>
<rect x="624" y="91" width="11" height="11" fill="#AFAFAF"/>
<rect x="624" y="91" width="11" height="11" fill="#AFAFAF"/>
<rect x="624" y="91" width="11" height="11" fill="#C1C1C1"/>
<rect x="624" y="102" width="11" height="10" fill="#AFAFAF"/>
<rect x="624" y="102" width="11" height="10" fill="#AFAFAF"/>
<rect x="624" y="102" width="11" height="10" fill="#393939"/>
<rect x="624" y="112" width="11" height="11" fill="#AFAFAF"/>
<rect x="624" y="112" width="11" height="11" fill="#AFAFAF"/>
<rect x="624" y="112" width="11" height="11" fill="#E8EFF3"/>
<rect x="624" y="130" width="11" height="11" fill="#AFAFAF"/>
<rect x="624" y="130" width="11" height="11" fill="#AFAFAF"/>
<rect x="624" y="130" width="11" height="11" fill="#F1F1F1"/>
<rect x="629" y="124" width="1" height="1" fill="#AFAFAF"/>
<rect x="629" y="124" width="1" height="1" fill="#AFAFAF"/>
<rect x="629" y="124" width="1" height="1" fill="#AFAFAF"/>
<rect x="629" y="126" width="1" height="1" fill="#AFAFAF"/>
<rect x="629" y="126" width="1" height="1" fill="#AFAFAF"/>
<rect x="629" y="126" width="1" height="1" fill="#AFAFAF"/>
<rect x="629" y="128" width="1" height="1" fill="#AFAFAF"/>
<rect x="629" y="128" width="1" height="1" fill="#AFAFAF"/>
<rect x="629" y="128" width="1" height="1" fill="#AFAFAF"/>
<rect x="624" y="59" width="11" height="11" fill="#AFAFAF"/>
<rect x="624" y="59" width="11" height="11" fill="#AFAFAF"/>
<rect x="624" y="59" width="11" height="11" fill="#E6E6E6"/>
<rect x="624" y="49" width="11" height="10" fill="#989898"/>
<path d="M482.5 57C482.5 46.2305 473.77 37.5 463 37.5H388C377.23 37.5 368.5 46.2304 368.5 57V132C368.5 142.77 377.23 151.5 388 151.5H463C473.77 151.5 482.5 142.77 482.5 132V57Z" stroke="white"/>
<path d="M392.536 124V113.091H394.155V114.795H394.297C394.525 114.213 394.892 113.761 395.398 113.439C395.905 113.112 396.513 112.949 397.224 112.949C397.943 112.949 398.542 113.112 399.02 113.439C399.503 113.761 399.88 114.213 400.15 114.795H400.263C400.543 114.232 400.962 113.785 401.52 113.453C402.079 113.117 402.749 112.949 403.53 112.949C404.506 112.949 405.304 113.254 405.924 113.865C406.544 114.471 406.854 115.416 406.854 116.699V124H405.178V116.699C405.178 115.894 404.958 115.319 404.518 114.973C404.077 114.627 403.559 114.455 402.962 114.455C402.195 114.455 401.601 114.687 401.18 115.151C400.758 115.61 400.547 116.192 400.547 116.898V124H398.843V116.528C398.843 115.908 398.642 115.409 398.239 115.03C397.837 114.646 397.318 114.455 396.684 114.455C396.248 114.455 395.841 114.571 395.462 114.803C395.088 115.035 394.785 115.357 394.553 115.768C394.326 116.176 394.212 116.647 394.212 117.182V124H392.536ZM414.351 124.227C413.366 124.227 412.502 123.993 411.758 123.524C411.02 123.055 410.442 122.4 410.025 121.557C409.613 120.714 409.407 119.729 409.407 118.602C409.407 117.466 409.613 116.474 410.025 115.626C410.442 114.779 411.02 114.121 411.758 113.652C412.502 113.183 413.366 112.949 414.351 112.949C415.336 112.949 416.197 113.183 416.936 113.652C417.679 114.121 418.257 114.779 418.669 115.626C419.086 116.474 419.294 117.466 419.294 118.602C419.294 119.729 419.086 120.714 418.669 121.557C418.257 122.4 417.679 123.055 416.936 123.524C416.197 123.993 415.336 124.227 414.351 124.227ZM414.351 122.722C415.099 122.722 415.714 122.53 416.197 122.146C416.68 121.763 417.038 121.259 417.27 120.634C417.502 120.009 417.618 119.331 417.618 118.602C417.618 117.873 417.502 117.194 417.27 116.564C417.038 115.934 416.68 115.425 416.197 115.037C415.714 114.649 415.099 114.455 414.351 114.455C413.603 114.455 412.987 114.649 412.504 115.037C412.021 115.425 411.664 115.934 411.432 116.564C411.2 117.194 411.084 117.873 411.084 118.602C411.084 119.331 411.2 120.009 411.432 120.634C411.664 121.259 412.021 121.763 412.504 122.146C412.987 122.53 413.603 122.722 414.351 122.722ZM423.529 109.455V124H421.852V109.455H423.529ZM431.456 113.091V114.511H425.576V113.091H431.456ZM427.337 124V111.585C427.337 110.96 427.484 110.439 427.778 110.023C428.071 109.606 428.452 109.294 428.921 109.085C429.39 108.877 429.885 108.773 430.405 108.773C430.817 108.773 431.153 108.806 431.414 108.872C431.674 108.938 431.868 109 431.996 109.057L431.513 110.506C431.428 110.477 431.31 110.442 431.158 110.399C431.011 110.357 430.817 110.335 430.576 110.335C430.022 110.335 429.622 110.475 429.376 110.754C429.134 111.034 429.013 111.443 429.013 111.983V124H427.337ZM437.93 124.227C436.879 124.227 435.972 123.995 435.21 123.531C434.452 123.062 433.868 122.409 433.456 121.571C433.049 120.728 432.845 119.748 432.845 118.631C432.845 117.513 433.049 116.528 433.456 115.676C433.868 114.819 434.441 114.152 435.175 113.673C435.913 113.19 436.775 112.949 437.76 112.949C438.328 112.949 438.889 113.044 439.443 113.233C439.997 113.422 440.501 113.73 440.956 114.156C441.41 114.578 441.773 115.136 442.042 115.832C442.312 116.528 442.447 117.385 442.447 118.403V119.114H434.038V117.665H440.743C440.743 117.049 440.62 116.5 440.373 116.017C440.132 115.534 439.786 115.153 439.336 114.874C438.891 114.594 438.366 114.455 437.76 114.455C437.092 114.455 436.515 114.62 436.027 114.952C435.544 115.278 435.172 115.705 434.912 116.23C434.651 116.756 434.521 117.319 434.521 117.92V118.886C434.521 119.71 434.663 120.409 434.947 120.982C435.236 121.55 435.636 121.983 436.148 122.281C436.659 122.575 437.253 122.722 437.93 122.722C438.371 122.722 438.768 122.66 439.123 122.537C439.483 122.409 439.793 122.22 440.054 121.969C440.314 121.713 440.515 121.396 440.657 121.017L442.277 121.472C442.106 122.021 441.82 122.504 441.417 122.92C441.015 123.332 440.518 123.654 439.926 123.886C439.334 124.114 438.669 124.227 437.93 124.227ZM448.207 124.256C447.516 124.256 446.889 124.125 446.325 123.865C445.762 123.6 445.314 123.219 444.983 122.722C444.651 122.22 444.486 121.614 444.486 120.903C444.486 120.278 444.609 119.772 444.855 119.384C445.101 118.991 445.43 118.683 445.842 118.46C446.254 118.238 446.709 118.072 447.206 117.963C447.708 117.849 448.212 117.759 448.719 117.693C449.381 117.608 449.919 117.544 450.331 117.501C450.747 117.454 451.05 117.376 451.24 117.267C451.434 117.158 451.531 116.969 451.531 116.699V116.642C451.531 115.941 451.339 115.397 450.956 115.009C450.577 114.62 450.002 114.426 449.23 114.426C448.43 114.426 447.802 114.601 447.348 114.952C446.893 115.302 446.574 115.676 446.389 116.074L444.798 115.506C445.082 114.843 445.461 114.327 445.934 113.957C446.413 113.583 446.934 113.323 447.497 113.176C448.065 113.025 448.624 112.949 449.173 112.949C449.523 112.949 449.926 112.991 450.381 113.077C450.84 113.157 451.282 113.325 451.709 113.581C452.14 113.837 452.497 114.223 452.781 114.739C453.065 115.255 453.207 115.946 453.207 116.812V124H451.531V122.523H451.446C451.332 122.759 451.143 123.013 450.878 123.283C450.613 123.553 450.26 123.782 449.819 123.972C449.379 124.161 448.842 124.256 448.207 124.256ZM448.463 122.75C449.126 122.75 449.684 122.62 450.139 122.359C450.598 122.099 450.944 121.763 451.176 121.351C451.413 120.939 451.531 120.506 451.531 120.051V118.517C451.46 118.602 451.304 118.68 451.062 118.751C450.826 118.818 450.551 118.877 450.238 118.929C449.931 118.976 449.63 119.019 449.336 119.057C449.048 119.09 448.813 119.118 448.633 119.142C448.198 119.199 447.791 119.291 447.412 119.419C447.038 119.542 446.735 119.729 446.503 119.98C446.275 120.226 446.162 120.562 446.162 120.989C446.162 121.571 446.377 122.011 446.808 122.31C447.244 122.603 447.795 122.75 448.463 122.75ZM461.011 113.091V114.511H455.357V113.091H461.011ZM457.005 110.477H458.681V120.875C458.681 121.348 458.75 121.704 458.887 121.94C459.029 122.172 459.209 122.329 459.427 122.409C459.65 122.485 459.884 122.523 460.13 122.523C460.315 122.523 460.466 122.513 460.585 122.494C460.703 122.471 460.798 122.452 460.869 122.438L461.21 123.943C461.096 123.986 460.937 124.028 460.734 124.071C460.53 124.118 460.272 124.142 459.96 124.142C459.486 124.142 459.022 124.04 458.568 123.837C458.118 123.633 457.744 123.323 457.445 122.906C457.152 122.49 457.005 121.964 457.005 121.33V110.477Z" fill="white"/>
<path d="M441.987 85.9766L425.997 95.3643L409.863 86.2236L409.72 67.697L425.711 58.3093L441.845 67.45L441.987 85.9766Z" stroke="white" stroke-width="2"/>
<path d="M430.473 82.7964L420.305 88.7655L410.047 82.9534L409.956 71.1739L420.124 65.2048L430.382 71.0169L430.473 82.7964Z" stroke="white" stroke-width="2"/>
<path d="M427.74 74.9467L423.102 77.6693L418.423 75.0184L418.382 69.6466L423.019 66.9241L427.698 69.575L427.74 74.9467Z" stroke="white" stroke-width="2"/>
<path d="M566.354 95.3536C566.549 95.1583 566.549 94.8417 566.354 94.6464L563.172 91.4645C562.976 91.2692 562.66 91.2692 562.464 91.4645C562.269 91.6597 562.269 91.9763 562.464 92.1716L565.293 95L562.464 97.8284C562.269 98.0237 562.269 98.3403 562.464 98.5355C562.66 98.7308 562.976 98.7308 563.172 98.5355L566.354 95.3536ZM483 95.5H485.594V94.5H483V95.5ZM490.781 95.5H495.969V94.5H490.781V95.5ZM501.156 95.5H506.344V94.5H501.156V95.5ZM511.531 95.5H516.719V94.5H511.531V95.5ZM521.906 95.5H527.094V94.5H521.906V95.5ZM532.281 95.5H537.469V94.5H532.281V95.5ZM542.656 95.5H547.844V94.5H542.656V95.5ZM553.031 95.5H558.219V94.5H553.031V95.5ZM563.406 95.5H566V94.5H563.406V95.5Z" fill="white"/>
<path d="M285 95H368" stroke="white" stroke-dasharray="5 5"/>
<path d="M185.339 127.187L184.296 109.875L198.757 100.303L214.262 108.042L215.305 125.353L200.843 134.925L185.339 127.187Z" stroke="white" stroke-width="2"/>
<path d="M216.106 125.17L214.997 108.058L230.921 101.702L241.869 114.885L232.713 129.39L216.106 125.17Z" stroke="white" stroke-width="2"/>
<line y1="-1" x2="17.7039" y2="-1" transform="matrix(0.113957 -0.993481 0.993564 0.113308 231.693 101.633)" stroke="white" stroke-width="2"/>
<line y1="-1" x2="17.7015" y2="-1" transform="matrix(-0.0601806 -0.998182 0.99814 -0.0610543 199.322 99.4688)" stroke="white" stroke-width="2"/>
<line y1="-1" x2="17.7015" y2="-1" transform="matrix(0.833891 -0.551939 0.551214 0.834357 233.162 84.8203)" stroke="white" stroke-width="2"/>
<line y1="-1" x2="17.7039" y2="-1" transform="matrix(0.113957 -0.993481 0.993564 0.113308 247.938 74.6953)" stroke="white" stroke-width="2"/>
<line y1="-1" x2="17.7015" y2="-1" transform="matrix(0.833891 -0.551939 0.551214 0.834357 249.408 57.8828)" stroke="white" stroke-width="2"/>
<line y1="-1" x2="17.6887" y2="-1" transform="matrix(-0.8035 -0.595302 0.595038 -0.8037 249.895 57.0781)" stroke="white" stroke-width="2"/>
<defs>
<filter id="filter0_d_838_33798" x="0" y="0" width="852" height="197" filterUnits="userSpaceOnUse" color-interpolation-filters="sRGB">
<feFlood flood-opacity="0" result="BackgroundImageFix"/>
<feColorMatrix in="SourceAlpha" type="matrix" values="0 0 0 0 0 0 0 0 0 0 0 0 0 0 0 0 0 0 127 0" result="hardAlpha"/>
<feOffset dy="4"/>
<feGaussianBlur stdDeviation="2"/>
<feComposite in2="hardAlpha" operator="out"/>
<feColorMatrix type="matrix" values="0 0 0 0 0 0 0 0 0 0 0 0 0 0 0 0 0 0 0.25 0"/>
<feBlend mode="normal" in2="BackgroundImageFix" result="effect1_dropShadow_838_33798"/>
<feBlend mode="normal" in="SourceGraphic" in2="effect1_dropShadow_838_33798" result="shape"/>
</filter>
<linearGradient id="paint0_linear_838_33798" x1="730.5" y1="155" x2="168.87" y2="-76.6227" gradientUnits="userSpaceOnUse">
<stop stop-color="#217EBB"/>
<stop offset="1" stop-color="#1E2F6C"/>
</linearGradient>
</defs>
</svg>
