<svg xmlns="http://www.w3.org/2000/svg" xmlns:xlink="http://www.w3.org/1999/xlink" width="300" zoomAndPan="magnify" viewBox="0 0 224.87999 60" height="80" preserveAspectRatio="xMidYMid meet" version="1.0"><defs><g/><clipPath id="3ff4347c29"><path d="M 66.453125 14.210938 L 97.9375 14.210938 L 97.9375 45.695312 L 66.453125 45.695312 Z M 66.453125 14.210938 " clip-rule="nonzero"/></clipPath><clipPath id="da04ca5aa1"><path d="M 66.453125 15 L 91 15 L 91 45 L 66.453125 45 Z M 66.453125 15 " clip-rule="nonzero"/></clipPath></defs><g clip-path="url(#3ff4347c29)"><path stroke-linecap="butt" transform="matrix(0.125933, 0, 0, 0.125933, 66.454618, 14.212022)" fill="none" stroke-linejoin="miter" d="M 229.8975 184.489609 L 125.923384 245.565097 L 21.04973 186.102572 L 20.119174 65.502523 L 124.062272 4.427035 L 228.966944 63.88956 Z M 229.8975 184.489609 " stroke="#ffffff" stroke-width="6" stroke-opacity="1" stroke-miterlimit="4"/></g><g clip-path="url(#da04ca5aa1)"><path stroke-linecap="butt" transform="matrix(0.125933, 0, 0, 0.125933, 66.454618, 14.212022)" fill="none" stroke-linejoin="miter" d="M 155.949322 163.955341 L 88.670128 203.503968 L 20.770563 165.009971 L 20.150192 86.936328 L 87.460405 47.387701 L 155.35997 85.912717 Z M 155.949322 163.955341 " stroke="#ffffff" stroke-width="6" stroke-opacity="1" stroke-miterlimit="4"/></g><path stroke-linecap="butt" transform="matrix(0.125933, 0, 0, 0.125933, 66.454618, 14.212022)" fill="none" stroke-linejoin="miter" d="M 139.912741 118.730323 L 103.869208 139.915979 L 67.515489 119.288656 L 67.205304 77.475676 L 103.248837 56.290019 L 139.602556 76.917343 Z M 139.912741 118.730323 " stroke="#ffffff" stroke-width="6" stroke-opacity="1" stroke-miterlimit="4"/><g fill="#ffffff" fill-opacity="1"><g transform="translate(100.817259, 34.201406)"><g><path d="M 2.9375 -10.265625 L 6.296875 -1.890625 L 9.65625 -10.265625 L 11.40625 -10.265625 L 11.40625 0 L 10.046875 0 L 10.046875 -4 L 10.171875 -8.3125 L 6.8125 0 L 5.78125 0 L 2.40625 -8.296875 L 2.546875 -4 L 2.546875 0 L 1.1875 0 L 1.1875 -10.265625 Z M 2.9375 -10.265625 "/></g></g></g><g fill="#ffffff" fill-opacity="1"><g transform="translate(113.41727, 34.201406)"><g><path d="M 0.640625 -3.890625 C 0.640625 -4.628906 0.785156 -5.296875 1.078125 -5.890625 C 1.367188 -6.492188 1.773438 -6.957031 2.296875 -7.28125 C 2.828125 -7.601562 3.429688 -7.765625 4.109375 -7.765625 C 5.140625 -7.765625 5.972656 -7.40625 6.609375 -6.6875 C 7.253906 -5.96875 7.578125 -5.015625 7.578125 -3.828125 L 7.578125 -3.734375 C 7.578125 -2.984375 7.4375 -2.3125 7.15625 -1.71875 C 6.875 -1.132812 6.46875 -0.675781 5.9375 -0.34375 C 5.40625 -0.0195312 4.796875 0.140625 4.109375 0.140625 C 3.078125 0.140625 2.238281 -0.21875 1.59375 -0.9375 C 0.957031 -1.65625 0.640625 -2.609375 0.640625 -3.796875 Z M 1.953125 -3.734375 C 1.953125 -2.878906 2.144531 -2.195312 2.53125 -1.6875 C 2.925781 -1.175781 3.453125 -0.921875 4.109375 -0.921875 C 4.773438 -0.921875 5.300781 -1.179688 5.6875 -1.703125 C 6.082031 -2.222656 6.28125 -2.953125 6.28125 -3.890625 C 6.28125 -4.722656 6.082031 -5.398438 5.6875 -5.921875 C 5.289062 -6.441406 4.765625 -6.703125 4.109375 -6.703125 C 3.460938 -6.703125 2.941406 -6.441406 2.546875 -5.921875 C 2.148438 -5.410156 1.953125 -4.679688 1.953125 -3.734375 Z M 1.953125 -3.734375 "/></g></g></g><g fill="#ffffff" fill-opacity="1"><g transform="translate(121.648149, 34.201406)"><g><path d="M 2.40625 0 L 1.09375 0 L 1.09375 -10.828125 L 2.40625 -10.828125 Z M 2.40625 0 "/></g></g></g><g fill="#ffffff" fill-opacity="1"><g transform="translate(125.150506, 34.201406)"><g><path d="M 6.859375 -4.53125 L 2.546875 -4.53125 L 2.546875 0 L 1.1875 0 L 1.1875 -10.265625 L 7.546875 -10.265625 L 7.546875 -9.15625 L 2.546875 -9.15625 L 2.546875 -5.640625 L 6.859375 -5.640625 Z M 6.859375 -4.53125 "/></g></g></g><g fill="#ffffff" fill-opacity="1"><g transform="translate(133.127695, 34.201406)"><g><path d="M 4.15625 0.140625 C 3.113281 0.140625 2.269531 -0.195312 1.625 -0.875 C 0.976562 -1.550781 0.65625 -2.460938 0.65625 -3.609375 L 0.65625 -3.84375 C 0.65625 -4.601562 0.796875 -5.28125 1.078125 -5.875 C 1.367188 -6.46875 1.773438 -6.929688 2.296875 -7.265625 C 2.816406 -7.597656 3.378906 -7.765625 3.984375 -7.765625 C 4.984375 -7.765625 5.753906 -7.4375 6.296875 -6.78125 C 6.847656 -6.132812 7.125 -5.203125 7.125 -3.984375 L 7.125 -3.4375 L 1.953125 -3.4375 C 1.972656 -2.6875 2.191406 -2.078125 2.609375 -1.609375 C 3.035156 -1.148438 3.570312 -0.921875 4.21875 -0.921875 C 4.675781 -0.921875 5.066406 -1.015625 5.390625 -1.203125 C 5.710938 -1.390625 5.992188 -1.640625 6.234375 -1.953125 L 7.03125 -1.328125 C 6.382812 -0.347656 5.425781 0.140625 4.15625 0.140625 Z M 3.984375 -6.703125 C 3.460938 -6.703125 3.019531 -6.507812 2.65625 -6.125 C 2.300781 -5.738281 2.082031 -5.203125 2 -4.515625 L 5.828125 -4.515625 L 5.828125 -4.609375 C 5.785156 -5.273438 5.601562 -5.789062 5.28125 -6.15625 C 4.96875 -6.519531 4.535156 -6.703125 3.984375 -6.703125 Z M 3.984375 -6.703125 "/></g></g></g><g fill="#ffffff" fill-opacity="1"><g transform="translate(140.773679, 34.201406)"><g><path d="M 5.703125 0 C 5.617188 -0.144531 5.554688 -0.410156 5.515625 -0.796875 C 4.910156 -0.171875 4.1875 0.140625 3.34375 0.140625 C 2.59375 0.140625 1.972656 -0.0703125 1.484375 -0.5 C 1.003906 -0.925781 0.765625 -1.460938 0.765625 -2.109375 C 0.765625 -2.910156 1.066406 -3.53125 1.671875 -3.96875 C 2.273438 -4.40625 3.125 -4.625 4.21875 -4.625 L 5.484375 -4.625 L 5.484375 -5.21875 C 5.484375 -5.675781 5.347656 -6.039062 5.078125 -6.3125 C 4.804688 -6.582031 4.40625 -6.71875 3.875 -6.71875 C 3.40625 -6.71875 3.015625 -6.597656 2.703125 -6.359375 C 2.390625 -6.128906 2.234375 -5.847656 2.234375 -5.515625 L 0.921875 -5.515625 C 0.921875 -5.890625 1.054688 -6.253906 1.328125 -6.609375 C 1.597656 -6.960938 1.960938 -7.242188 2.421875 -7.453125 C 2.890625 -7.660156 3.398438 -7.765625 3.953125 -7.765625 C 4.828125 -7.765625 5.515625 -7.546875 6.015625 -7.109375 C 6.515625 -6.671875 6.773438 -6.066406 6.796875 -5.296875 L 6.796875 -1.78125 C 6.796875 -1.082031 6.882812 -0.523438 7.0625 -0.109375 L 7.0625 0 Z M 3.53125 -1 C 3.9375 -1 4.320312 -1.101562 4.6875 -1.3125 C 5.0625 -1.519531 5.328125 -1.796875 5.484375 -2.140625 L 5.484375 -3.703125 L 4.46875 -3.703125 C 2.875 -3.703125 2.078125 -3.234375 2.078125 -2.296875 C 2.078125 -1.890625 2.210938 -1.570312 2.484375 -1.34375 C 2.753906 -1.113281 3.101562 -1 3.53125 -1 Z M 3.53125 -1 "/></g></g></g><g fill="#ffffff" fill-opacity="1"><g transform="translate(148.624022, 34.201406)"><g><path d="M 2.75 -9.46875 L 2.75 -7.625 L 4.1875 -7.625 L 4.1875 -6.625 L 2.75 -6.625 L 2.75 -1.890625 C 2.75 -1.585938 2.8125 -1.359375 2.9375 -1.203125 C 3.070312 -1.046875 3.289062 -0.96875 3.59375 -0.96875 C 3.75 -0.96875 3.957031 -1 4.21875 -1.0625 L 4.21875 0 C 3.875 0.09375 3.539062 0.140625 3.21875 0.140625 C 2.632812 0.140625 2.191406 -0.0351562 1.890625 -0.390625 C 1.597656 -0.742188 1.453125 -1.242188 1.453125 -1.890625 L 1.453125 -6.625 L 0.0625 -6.625 L 0.0625 -7.625 L 1.453125 -7.625 L 1.453125 -9.46875 Z M 2.75 -9.46875 "/></g></g></g><g fill="#ffffff" fill-opacity="1"><g transform="translate(153.334811, 34.201406)"><g/></g></g></svg>